<?xml version="1.0" encoding="iso-8859-1"?>
<!-- Generator: Adobe Illustrator 25.0.0, SVG Export Plug-In . SVG Version: 6.00 Build 0)  -->
<svg fill="#FFFFFF" version="1.1" baseProfile="basic" id="Layer_1"
	 xmlns="http://www.w3.org/2000/svg" xmlns:xlink="http://www.w3.org/1999/xlink" x="0px" y="0px" viewBox="0 0 72 72"
	 xml:space="preserve">
<path d="M60.218,19.713C62.678,22.227,63,26.223,63,36s-0.322,13.772-2.782,16.287C57.758,54.802,55.195,55,36,55
	s-21.758-0.198-24.218-2.713C9.322,49.772,9,45.777,9,36s0.322-13.773,2.782-16.287C14.242,17.198,16.805,17,36,17
	S57.758,17.198,60.218,19.713z M53.534,46.115C54.628,45.11,55,42.414,55,36s-0.372-9.11-1.466-10.115
	C52.441,24.879,49.215,25,36,25s-16.602-0.034-17.534,0.885S17,29.586,17,36s0.372,9.11,1.466,10.115S22.785,47,36,47
	S52.441,47.121,53.534,46.115z"/>
<path d="M31.446,43.832V28.168l13.622,7.77L31.446,43.832z"/>
</svg>